<?xml version="1.0" encoding="UTF-8" standalone="no"?>
<svg width="121px" height="120px" viewBox="0 0 121 120" version="1.1" xmlns="http://www.w3.org/2000/svg" xmlns:xlink="http://www.w3.org/1999/xlink" xmlns:sketch="http://www.bohemiancoding.com/sketch/ns">
    <!-- Generator: Sketch 3.2.2 (9983) - http://www.bohemiancoding.com/sketch -->
    <title>E-mail</title>
    <desc>Created with Sketch.</desc>
    <defs></defs>
    <g id="Page-1" stroke="none" stroke-width="1" fill="none" fill-rule="evenodd" sketch:type="MSPage">
        <g id="E-mail" sketch:type="MSArtboardGroup" transform="translate(0.824229, 0.000000)" fill="#221E1B">
            <g id="Oval-1-+-Line" sketch:type="MSLayerGroup">
                <path d="M60,120 C93.137085,120 120,93.137085 120,60 C120,26.862915 93.137085,0 60,0 C26.862915,0 0,26.862915 0,60 C0,93.137085 26.862915,120 60,120 Z M24,37.992981 C24,34.683149 26.6910787,32 29.9994344,32 L90.0005656,32 C93.3139617,32 96,34.6821302 96,37.992981 L96,82.007019 C96,85.316851 93.3089213,88 90.0005656,88 L29.9994344,88 C26.6860383,88 24,85.3178698 24,82.007019 L24,37.992981 Z" id="Oval-1" sketch:type="MSShapeGroup"></path>
                <path d="M50.553381,61.1717386 L30.3722847,43.0783419 L30,42.7445694 L30.667545,42 L31.0398297,42.3337725 L59.7060572,68.0345282 L59.7060572,68.0345282 L88.3722847,42.3337725 L88.7445694,42 L89.4121145,42.7445694 L89.0398297,43.0783419 L68.35924,61.6195603 L68.35924,61.6195603 L87.0394547,78.3334366 L87.4120753,78.666834 L86.7452805,79.4120753 L86.3726598,79.0786779 L67.6101439,62.2911637 L60.0601362,69.0601362 L59.7445694,69.4121145 L59.7060572,69.3775863 L59.667545,69.4121145 L59.3519783,69.0601362 L51.3024771,61.843342 L51.0394547,62.0786779 L32.0394547,79.0786779 L31.666834,79.4120753 L31.0000391,78.666834 L31.3726598,78.3334366 L50.3726598,61.3334366 L50.553381,61.1717386 Z" id="Line" stroke="#221E1B" stroke-linecap="square" sketch:type="MSShapeGroup"></path>
            </g>
        </g>
    </g>
</svg>