<?xml version="1.0" encoding="UTF-8" standalone="no"?>
<svg width="121px" height="120px" viewBox="0 0 121 120" version="1.1" xmlns="http://www.w3.org/2000/svg" xmlns:xlink="http://www.w3.org/1999/xlink" xmlns:sketch="http://www.bohemiancoding.com/sketch/ns">
    <!-- Generator: Sketch 3.2.2 (9983) - http://www.bohemiancoding.com/sketch -->
    <title>Github</title>
    <desc>Created with Sketch.</desc>
    <defs></defs>
    <g id="Page-1" stroke="none" stroke-width="1" fill="none" fill-rule="evenodd" sketch:type="MSPage">
        <g id="Github" sketch:type="MSArtboardGroup" transform="translate(0.236343, 0.000000)" fill="#221E1B">
            <path d="M60.1984441,0 C26.8886384,0 0,27.5195992 0,61.611043 C0,88.719902 17.2568873,111.721358 41.336265,119.936164 C44.5468487,120.346904 45.3494946,118.703943 45.3494946,117.060982 L45.3494946,106.381734 C28.4939302,110.078397 24.8820236,98.1669286 24.8820236,98.1669286 C22.0727629,91.1843437 18.0595332,89.1306422 18.0595332,89.1306422 C12.4410118,85.4339797 18.4608562,85.4339797 18.4608562,85.4339797 C24.4807006,85.84472 27.6912843,91.595084 27.6912843,91.595084 C32.9084828,101.042111 41.7375879,98.1669286 45.3494946,96.5239674 C45.7508175,92.4165645 47.3561094,89.9521228 49.3627242,88.3091617 C36.1190665,86.6662005 22.0727629,81.3265768 22.0727629,57.9143804 C22.0727629,51.3425359 24.4807006,45.5921718 28.0926073,41.484769 C27.2899613,39.8418078 25.2833465,33.6807035 28.4939302,25.0551575 C28.4939302,25.0551575 33.7111287,23.4121964 44.9481716,31.2162618 C49.7640472,29.9840409 54.9812456,29.1625604 60.1984441,29.1625604 C65.4156426,29.1625604 70.6328411,29.9840409 75.4487167,31.2162618 C87.0870825,23.4121964 91.902958,25.0551575 91.902958,25.0551575 C95.1135417,33.6807035 93.1069269,39.8418078 92.304281,41.484769 C96.3175106,45.5921718 98.3241254,51.3425359 98.3241254,57.9143804 C98.3241254,81.7373171 84.2778218,86.6662005 71.0341641,88.3091617 C73.0407789,90.3628631 75.0473937,94.0595257 75.0473937,99.8098897 L75.0473937,116.650241 C75.0473937,118.293203 76.2513626,120.346904 79.0606233,119.525423 C103.140001,111.310618 119.995565,88.3091617 119.995565,61.2003027 C120.396888,27.5195992 93.5082499,0 60.1984441,0 L60.1984441,0 Z" id="Shape" sketch:type="MSShapeGroup"></path>
        </g>
    </g>
</svg>