<?xml version="1.0" encoding="UTF-8" standalone="no"?>
<svg width="121px" height="120px" viewBox="0 0 121 120" version="1.1" xmlns="http://www.w3.org/2000/svg" xmlns:xlink="http://www.w3.org/1999/xlink" xmlns:sketch="http://www.bohemiancoding.com/sketch/ns">
    <!-- Generator: Sketch 3.2.2 (9983) - http://www.bohemiancoding.com/sketch -->
    <title>Twitter</title>
    <desc>Created with Sketch.</desc>
    <defs></defs>
    <g id="Page-1" stroke="none" stroke-width="1" fill="none" fill-rule="evenodd" sketch:type="MSPage">
        <g id="Twitter" sketch:type="MSArtboardGroup" transform="translate(0.060000, 0.000000)" fill="#221E1B">
            <path d="M60,120 C93.137085,120 120,93.137085 120,60 C120,26.862915 93.137085,0 60,0 C26.862915,0 0,26.862915 0,60 C0,93.137085 26.862915,120 60,120 Z M45.159662,93 C35.8908519,93 27.2634698,90.2418061 20,85.5144074 C21.2840265,85.668284 22.5905849,85.7470047 23.9152859,85.7470047 C31.6048136,85.7470047 38.681883,83.0832756 44.29906,78.6146153 C37.1169392,78.4800475 31.0555617,73.6629369 28.9671166,67.0432716 C29.9690552,67.2378453 30.9973298,67.3421131 32.0548667,67.3421131 C33.5519222,67.3421131 35.0018655,67.1386276 36.3792385,66.7577978 C28.8705512,65.2273492 23.2132851,58.4930191 23.2132851,50.4201406 C23.2132851,50.3500347 23.2132851,50.2802258 23.2144555,50.2107139 C25.4275577,51.4586593 27.958155,52.2081394 30.6488167,52.2945836 C26.2448517,49.306763 23.3470134,44.2068522 23.3470134,38.4263788 C23.3470134,35.3729082 24.1564066,32.5107436 25.5691869,30.0499059 C33.6642891,40.1303099 45.7580745,46.76364 59.3989539,47.4584612 C59.119207,46.2390336 58.9737737,44.9673235 58.9737737,43.6614516 C58.9737737,34.4600455 66.3226892,27 75.387249,27 C80.1078313,27 84.373386,29.0235667 87.367497,32.2618081 C91.106039,31.5144074 94.6186766,30.1277354 97.7898241,28.2185365 C96.564322,32.1091197 93.9620323,35.3743935 90.5731739,37.4365779 C93.893266,37.0337657 97.0565127,36.1381325 100,34.8129518 C97.7994806,38.1542727 95.0166429,41.0889197 91.8100882,43.4380632 C91.8416914,44.1524903 91.857493,44.8710763 91.857493,45.5935241 C91.857493,67.6112486 75.3489155,93 45.159662,93 Z" id="Oval-2" sketch:type="MSShapeGroup"></path>
        </g>
    </g>
</svg>